stateDiagram-v2
    [*] --> site.config.tx

    site.config.tx --> src

    state src {
        [*] --> Second 

        state Second {
            [*] --> second 
            second --> Third
 --
            state Third {
                [*] --> third
                third --> [*]
            }
        }
    }

